# xmcd CD database file
#
# Track frame offsets:
#	150
#	12995
#	30869
#	53162
#	66317
#	80650
#	93564
#	106805
#	128703
#	142331
#	157768
#	175105
#	188633
#	198552
#	209230
#	227064
#	244418
#	259579
#	269937
#	283159
#
# Disc length: 3958 seconds
#
# Revision: 0
# Processed by: cddbd v1.5.2PL0 Copyright (c) Steve Scherf et al.
# Submitted via: CDex 1.51
#
DISCID=2d0f7414
DTITLE=Nature - 100 moments nature
DYEAR=2009
DGENRE=New Age
TTITLE0=Lever du jour sur une oasis
TTITLE1=Forêt de Guyane
TTITLE2=Lever du jour sur la savane
TTITLE3=Forêt tropicale
TTITLE4=Troupeau Masaï près de la rivière
TTITLE5=Douce nuit à la Réunion
TTITLE6=Cacique de Montezuma
TTITLE7=Ile du pacifique
TTITLE8=Amazones Poudrées
TTITLE9=Crépuscule au bord de la rivière
TTITLE10=La savane après l'orage
TTITLE11=Le vent du désert
TTITLE12=Un oued la nuit
TTITLE13=Volcan éloigné
TTITLE14=Un monde de glace
TTITLE15=Saltee island
TTITLE16=Singes hurleurs au lever du jour
TTITLE17=Plage de nuit auxx Caraïbes
TTITLE18=Dauphins de Floride
TTITLE19=Déferlantes à Maui
EXTD=YEAR: 2009
EXTT0=
EXTT1=
EXTT2=
EXTT3=
EXTT4=
EXTT5=
EXTT6=
EXTT7=
EXTT8=
EXTT9=
EXTT10=
EXTT11=
EXTT12=
EXTT13=
EXTT14=
EXTT15=
EXTT16=
EXTT17=
EXTT18=
EXTT19=
PLAYORDER=
